<?xml version="1.0" standalone="no"?>
<!DOCTYPE svg PUBLIC "-//W3C//DTD SVG 20010904//EN"
 "http://www.w3.org/TR/2001/REC-SVG-20010904/DTD/svg10.dtd">
<svg version="1.0" xmlns="http://www.w3.org/2000/svg"
 width="518.000000pt" height="768.000000pt" viewBox="0 0 518.000000 768.000000"
 preserveAspectRatio="xMidYMid meet">
<metadata>
Created by potrace 1.15, written by Peter Selinger 2001-2017
</metadata>
<g transform="translate(0.000000,768.000000) scale(0.100000,-0.100000)"
fill="#000000" stroke="none">
<path d="M2590 7355 c-19 -7 -28 -14 -20 -15 34 -2 -27 -24 -71 -25 -84 -2
-135 -63 -189 -227 -40 -122 -42 -144 -25 -263 10 -60 26 -140 36 -177 25 -86
24 -88 -11 -88 -34 0 -50 -22 -50 -69 0 -27 5 -31 40 -41 38 -10 40 -13 40
-49 0 -29 6 -42 22 -53 l23 -15 -35 -18 c-38 -20 -177 -27 -235 -12 -29 7 -29
7 -10 -9 19 -15 17 -16 -40 -10 -79 9 -135 26 -135 42 0 23 -75 71 -154 99
-44 15 -96 38 -115 51 -37 25 -75 34 -54 13 6 -6 9 -18 6 -25 -8 -23 52 -106
113 -154 30 -25 72 -59 92 -77 45 -39 167 -105 259 -139 77 -29 128 -64 135
-92 4 -15 1 -18 -12 -15 -13 3 -18 -1 -17 -13 3 -29 -66 -37 -161 -18 -13 2
-21 8 -18 12 3 5 -8 6 -25 4 -16 -2 -32 -8 -35 -13 -7 -12 -24 -12 -24 0 0 4
27 18 60 30 32 12 62 26 65 31 19 31 -108 -24 -141 -61 -23 -26 -37 -76 -23
-85 5 -3 9 -16 9 -30 l0 -25 -31 18 c-17 10 -38 25 -47 34 -9 8 -26 18 -37 22
-11 4 6 -17 38 -46 54 -49 71 -77 46 -77 -8 0 -8 -4 0 -13 6 -8 13 -47 17 -88
3 -41 12 -78 19 -84 13 -11 26 -82 29 -157 2 -54 26 -93 26 -43 0 20 9 37 28
53 21 18 22 21 5 13 -49 -24 -45 -3 5 25 60 34 88 37 138 14 41 -18 44 -21 31
-35 -9 -8 -26 -15 -40 -15 -13 0 -34 -9 -46 -19 l-22 -20 28 -3 c26 -4 24 -5
-12 -12 -52 -10 -93 -26 -110 -42 -11 -11 -23 -6 -71 34 -33 26 -68 55 -79 65
-11 10 -33 26 -49 34 -47 24 -94 81 -111 134 -19 55 -30 64 -23 19 3 -16 3
-30 1 -30 -12 0 -163 164 -163 176 0 8 -7 14 -16 14 -17 0 -198 180 -189 189
3 3 10 -1 15 -9 5 -8 12 -11 16 -8 10 11 -101 142 -175 206 -88 76 -161 153
-161 169 0 7 -5 13 -11 13 -12 0 -8 31 4 31 5 1 44 -34 87 -76 43 -42 81 -76
84 -76 19 2 26 0 26 -10 0 -5 -6 -7 -12 -3 -9 5 -9 3 1 -9 7 -9 18 -14 24 -10
5 3 7 2 4 -4 -5 -9 45 -68 55 -63 1 1 11 -2 21 -6 30 -11 28 -1 -9 45 -18 24
-34 49 -34 56 0 7 17 20 38 28 21 8 69 44 106 80 37 36 80 70 94 77 77 36 92
45 94 55 0 5 2 30 3 55 1 25 4 75 6 112 3 69 -12 108 -35 89 -8 -7 -28 1 -61
23 -72 48 -116 50 -222 15 -124 -42 -183 -73 -183 -95 -1 -13 -55 -71 -79 -83
-18 -10 -23 -7 -43 26 -13 21 -32 55 -42 76 -20 38 -103 127 -120 127 -5 0
-17 7 -26 15 -24 21 -89 28 -97 10 -7 -19 -15 -19 -39 1 -19 15 -18 15 4 11
29 -7 29 9 0 17 -33 8 -38 8 -38 -7 0 -8 -9 -22 -20 -32 -26 -24 -9 -36 40
-29 33 5 36 3 54 -38 11 -24 28 -55 38 -70 11 -16 17 -28 13 -28 -20 0 -75 32
-101 58 -29 29 -33 30 -58 17 -25 -13 -28 -12 -64 23 -51 51 -74 81 -68 91 3
5 -3 16 -14 26 -11 10 -21 16 -21 14 -9 -27 -3 -49 12 -54 11 -4 19 -11 19
-17 0 -5 9 -21 20 -35 l19 -25 -24 -25 c-13 -14 -21 -32 -18 -39 3 -8 0 -14
-7 -14 -6 0 -8 -5 -4 -12 14 -22 13 -58 -2 -58 -7 0 -18 -9 -24 -20 -16 -29
15 -81 100 -168 83 -85 113 -93 118 -30 2 20 -4 51 -13 67 -8 17 -12 31 -7 31
10 0 42 -33 42 -43 0 -4 9 -16 20 -27 11 -11 20 -18 20 -14 0 3 29 -26 65 -63
36 -37 65 -71 65 -75 0 -5 -8 -9 -17 -10 -10 -1 -25 -2 -33 -4 -8 -1 -20 -2
-27 -3 -6 -1 -13 -13 -15 -28 -2 -18 -10 -29 -23 -32 -22 -4 -22 -3 -65 -76
-54 -91 -89 -169 -93 -207 -2 -20 -8 -43 -14 -50 -22 -27 -76 -195 -84 -263
-4 -38 -13 -92 -20 -120 -23 -105 -23 -101 -20 -385 3 -186 12 -278 41 -420 5
-25 12 -60 15 -78 4 -18 11 -30 16 -26 9 5 13 -9 10 -33 -1 -7 3 -13 8 -13 6
0 7 -8 4 -17 -6 -16 -5 -16 10 -4 10 7 15 22 12 35 -2 11 -7 49 -10 83 -5 54
-3 65 15 83 11 11 20 29 20 40 0 11 5 20 11 20 7 0 9 11 6 30 -8 35 0 40 13 8
7 -20 9 -18 9 15 1 22 -6 45 -14 53 -17 17 -20 34 -6 34 5 0 12 -8 14 -17 3
-10 5 1 6 24 1 25 -4 43 -11 46 -10 3 -10 7 -2 18 7 8 14 37 16 64 7 76 37
259 60 362 11 51 17 97 13 102 -3 6 -2 11 3 11 5 0 12 18 15 41 3 23 14 49 25
60 27 25 34 5 14 -44 -8 -21 -12 -41 -8 -44 3 -3 1 -12 -6 -20 -6 -7 -8 -16
-6 -19 3 -3 -1 -26 -9 -52 -8 -26 -17 -76 -19 -112 -3 -36 -9 -78 -14 -95 -14
-43 -20 -176 -9 -170 5 4 9 -5 9 -19 0 -14 4 -26 9 -26 12 0 22 81 25 187 1
43 7 87 13 98 6 11 16 53 22 94 18 113 50 197 95 245 21 22 44 49 51 59 7 11
46 55 87 99 88 96 96 117 60 160 -49 59 39 -8 169 -127 41 -38 137 -123 212
-187 87 -75 137 -125 139 -140 2 -12 19 -34 40 -48 20 -14 65 -50 99 -80 57
-50 61 -51 32 -16 -18 22 -29 44 -26 49 3 6 1 7 -5 3 -6 -3 -16 3 -22 14 -10
18 -8 20 19 20 25 0 31 -5 42 -37 26 -83 66 -137 146 -200 24 -18 32 -31 28
-47 -3 -11 -1 -37 4 -56 l9 -35 3 30 c1 17 1 38 1 48 -2 22 22 11 56 -26 22
-23 22 -26 6 -35 -9 -5 -25 -7 -35 -5 -36 10 -19 -19 51 -89 l70 -70 -1 -82
c-1 -62 -3 -73 -9 -48 -4 18 -10 35 -12 38 -10 10 -48 -110 -48 -152 0 -57 38
-132 86 -171 32 -26 35 -32 25 -51 -14 -27 -14 -57 1 -82 10 -15 10 -22 1 -31
-9 -9 -19 -4 -43 21 -21 23 -27 35 -19 40 6 4 9 12 5 18 -3 6 -1 23 5 39 9 26
7 31 -24 58 -53 46 -67 82 -68 177 0 89 -17 84 -18 -5 -1 -27 -7 -55 -15 -62
-22 -22 -19 -138 4 -168 15 -18 18 -37 16 -80 -2 -53 -6 -60 -54 -111 -80 -84
-88 -121 -48 -219 l24 -58 -20 -47 c-28 -64 -85 -146 -147 -212 -59 -62 -106
-124 -78 -101 19 15 23 1 5 -17 -7 -7 -9 -12 -5 -12 3 0 22 16 41 35 20 19 40
35 45 35 19 0 93 96 136 175 46 86 95 218 95 257 0 27 36 122 67 180 l20 37
20 -22 c22 -23 25 -66 6 -88 -6 -8 -19 -34 -28 -59 -10 -25 -26 -64 -36 -87
-10 -24 -19 -48 -19 -54 0 -6 -7 -25 -16 -42 -33 -63 -34 -67 -23 -67 6 0 3
-7 -6 -16 -11 -12 -13 -20 -6 -27 15 -15 14 -27 -2 -27 -17 0 -80 -117 -65
-122 7 -3 8 -10 4 -17 -7 -10 -10 -10 -16 -1 -5 8 -9 7 -13 -4 -4 -9 -1 -16 4
-16 6 0 9 -9 6 -20 -3 -10 0 -21 7 -24 7 -3 5 -10 -6 -19 -10 -8 -15 -17 -11
-21 4 -4 0 -4 -10 0 -12 4 -17 1 -17 -10 0 -23 -13 -20 -40 9 -29 31 -40 32
-40 2 0 -14 18 -41 44 -67 24 -24 42 -50 39 -57 -4 -10 -9 -11 -19 -2 -8 7
-13 14 -11 16 2 2 -13 22 -34 45 -32 35 -40 40 -53 29 -14 -12 -12 -18 13 -55
16 -22 40 -52 55 -65 23 -22 24 -26 12 -50 -64 -123 -68 -133 -57 -144 8 -8
14 -8 19 -2 4 6 17 16 29 22 20 11 23 10 34 -22 7 -19 16 -32 20 -30 4 3 12
-2 19 -10 8 -10 17 -12 28 -6 14 8 19 23 24 74 1 9 7 17 14 17 6 0 19 9 29 20
32 35 44 25 44 -34 -1 -30 4 -70 11 -90 8 -26 8 -55 1 -111 -6 -42 -11 -99
-11 -127 0 -44 -2 -49 -15 -38 -13 11 -14 8 -8 -21 l6 -33 -27 21 c-32 26 -60
19 -83 -19 -34 -55 24 -122 70 -81 19 18 20 17 14 -7 -19 -84 -29 -153 -25
-180 3 -16 1 -30 -4 -30 -12 0 -6 -93 7 -102 7 -5 6 -8 -1 -8 -15 0 -16 -72
-1 -83 9 -7 9 -10 -1 -14 -10 -4 -10 -8 -1 -19 6 -8 14 -14 18 -14 3 0 7 44 9
98 7 198 18 181 25 -38 5 -169 12 -241 31 -335 28 -140 32 -133 10 21 -17 121
-23 551 -8 575 4 8 7 24 5 37 -1 12 2 22 7 22 5 0 7 20 5 44 -3 29 0 52 10 67
24 38 26 291 3 344 -11 24 -16 52 -13 72 3 19 1 33 -4 33 -6 0 -7 5 -4 10 4 6
11 7 17 4 5 -4 4 4 -2 17 -10 17 -10 24 -1 27 6 2 11 14 11 26 0 12 6 31 14
41 13 18 15 17 35 -15 40 -66 50 -127 55 -325 7 -238 25 -301 65 -220 17 36
41 139 43 185 1 19 7 44 14 55 7 11 20 45 28 76 8 31 24 74 35 95 l21 39 -2
-72 c-2 -40 -5 -73 -8 -73 -3 0 -6 -8 -6 -17 -1 -10 -4 -36 -7 -58 -3 -22 -9
-65 -13 -95 -4 -30 -11 -60 -16 -67 -6 -8 -6 -19 1 -30 9 -17 10 -17 16 0 4 9
11 17 15 17 11 0 -1 -54 -14 -62 -8 -6 -8 -10 1 -16 8 -5 9 -13 3 -22 -8 -12
-10 -12 -10 4 0 14 -3 16 -13 8 -8 -7 -11 -26 -9 -53 4 -39 6 -41 18 -24 13
17 14 16 14 -13 0 -18 -4 -32 -10 -32 -5 0 -10 5 -10 11 0 5 -4 8 -9 4 -6 -3
-8 -14 -6 -25 2 -11 -2 -20 -8 -20 -8 0 -8 -3 -2 -8 10 -6 12 -28 6 -42 -2 -3
-4 -25 -6 -50 -1 -25 -8 -74 -15 -110 -6 -36 -15 -101 -20 -145 -5 -44 -12
-91 -16 -104 -7 -23 -8 -21 -21 20 -8 24 -15 49 -17 54 -2 6 -7 25 -11 43 -8
32 -21 49 -32 38 -3 -3 4 -40 16 -83 28 -105 40 -174 30 -167 -13 8 -11 -10 2
-23 6 -6 12 -28 14 -49 1 -22 3 -43 5 -49 1 -5 1 -44 0 -85 -2 -74 -8 -74 -24
2 -4 19 -11 26 -21 22 -10 -4 -15 0 -15 16 0 11 -4 19 -9 16 -4 -3 -11 -43
-15 -88 -4 -46 -11 -99 -17 -119 -5 -20 -10 -72 -11 -117 -4 -103 -13 -88 -63
98 -20 74 -40 149 -45 165 -5 17 -14 64 -21 105 -6 41 -15 80 -21 85 -7 7 -8
-5 -2 -35 4 -25 8 -76 9 -113 1 -41 6 -72 13 -76 7 -4 28 -61 47 -127 19 -65
44 -142 56 -170 15 -37 18 -62 14 -88 -5 -26 -4 -36 6 -36 10 0 10 -3 2 -11
-9 -9 -8 -18 4 -35 11 -17 12 -24 3 -24 -8 0 -10 -8 -7 -21 4 -15 2 -19 -9
-15 -9 3 -12 1 -9 -5 4 -5 1 -17 -6 -26 -14 -16 -33 -46 -46 -73 -24 -50 -66
-105 -80 -105 -24 0 -27 -21 -5 -42 99 -94 373 -276 450 -299 29 -9 52 -21 52
-29 0 -11 6 -11 32 -2 22 9 32 9 35 1 2 -6 16 -9 31 -6 21 4 25 2 15 -8 -8 -8
-10 -30 -6 -62 5 -42 3 -52 -18 -74 -32 -34 -35 -58 -6 -43 12 7 19 8 15 4 -4
-5 -3 -14 2 -20 13 -15 2 -47 -13 -38 -5 3 -8 2 -4 -3 7 -12 -30 -56 -66 -79
-17 -11 -27 -26 -27 -41 0 -34 74 -111 134 -140 58 -28 60 -28 52 -9 -3 8 2
19 11 24 13 7 24 2 46 -20 16 -16 33 -27 38 -23 15 9 10 18 -21 36 -23 13 -30
24 -30 48 0 16 5 30 10 30 6 0 19 9 30 20 l20 20 0 -42 c0 -24 6 -54 13 -68
13 -26 18 -27 154 -31 13 -1 20 -6 16 -12 -3 -6 -1 -7 6 -3 6 4 18 20 26 37
12 22 22 29 45 29 17 0 30 4 30 9 0 5 10 13 21 16 15 5 18 10 9 15 -8 5 -8 9
4 13 9 4 16 2 16 -3 0 -5 8 -6 17 -3 29 11 54 37 67 68 19 44 81 105 170 166
47 33 72 55 62 57 -14 3 -14 6 0 28 9 13 34 37 56 53 24 18 35 32 28 36 -12 8
-102 -36 -143 -71 -50 -42 -137 -54 -137 -18 0 19 -27 6 -33 -15 -2 -10 -18
-21 -35 -24 -17 -3 -56 -22 -86 -42 -39 -25 -58 -32 -60 -23 -12 37 -14 78 -6
83 6 4 7 11 4 17 -4 6 -2 8 4 5 15 -10 43 3 35 16 -4 6 0 8 10 4 19 -7 69 12
62 23 -3 4 9 13 25 20 17 7 29 14 27 16 -2 2 -44 -12 -93 -31 -49 -19 -90 -35
-91 -35 -2 0 -3 20 -3 45 0 51 5 55 100 79 36 9 85 27 110 39 109 55 153 81
141 85 -6 2 -17 -1 -24 -6 -7 -6 -59 -26 -117 -45 -120 -40 -214 -55 -225 -37
-5 8 -11 6 -20 -7 -23 -33 -123 -57 -199 -48 -36 3 -66 11 -66 16 0 5 7 9 16
9 29 0 112 32 133 51 17 16 21 17 21 4 0 -8 5 -15 11 -15 5 0 7 -4 4 -10 -11
-17 14 -11 33 8 23 23 62 35 62 19 0 -6 13 2 29 17 22 21 35 26 52 21 21 -7
19 -10 -27 -33 -28 -14 -43 -27 -35 -30 7 -2 54 16 105 42 70 35 108 48 166
55 41 5 84 11 95 14 11 2 14 2 7 0 -7 -3 -10 -9 -6 -14 3 -5 10 -6 16 -3 6 4
25 7 42 7 24 -1 26 1 12 6 -26 10 -11 17 39 20 59 3 204 103 175 121 -5 3 5
12 22 19 17 8 39 21 48 30 9 9 36 34 61 57 24 22 55 57 69 77 14 20 33 37 42
37 9 0 32 9 50 19 41 24 210 61 278 61 27 0 50 4 50 9 0 14 -42 18 -63 6 -13
-7 -20 -6 -27 5 -5 8 -10 10 -10 4 0 -13 -64 -26 -137 -28 -32 0 -49 -4 -46
-11 4 -5 3 -7 -2 -3 -4 4 -14 3 -22 -3 -10 -9 -13 -7 -13 9 0 11 8 22 18 25
97 29 181 46 250 50 115 6 122 21 10 20 -16 0 -28 4 -28 10 0 6 23 8 63 4 34
-3 71 -1 82 3 35 14 -49 25 -180 24 -114 0 -175 -7 -196 -19 -5 -4 -9 1 -9 9
0 9 14 19 33 25 l32 9 -29 1 c-42 1 -23 14 32 22 l47 6 -49 2 c-46 1 -48 2
-42 26 5 18 3 23 -8 19 -8 -3 -17 -1 -21 5 -3 6 1 11 9 11 8 0 18 5 22 12 5 8
0 9 -14 6 -16 -5 -22 -1 -23 10 -1 18 -1 22 -18 92 -5 25 -7 63 -4 85 9 64 9
118 1 142 -4 14 -2 23 6 26 8 3 25 -19 46 -59 36 -71 49 -85 24 -26 -9 20 -18
42 -21 49 -2 6 5 14 16 18 37 11 17 35 -30 35 -21 0 -59 65 -59 102 0 15 -3
19 -8 11 -5 -9 -43 29 -112 114 -58 69 -116 142 -130 162 -48 71 -82 155 -86
211 -2 30 -5 73 -8 95 -7 56 -9 175 -4 205 5 28 28 74 33 68 2 -2 0 -35 -5
-73 -12 -91 -12 -174 -1 -156 7 11 10 11 15 0 3 -8 4 6 2 31 -5 51 2 100 15
100 5 0 9 -9 9 -20 0 -11 4 -20 9 -20 4 0 8 10 7 23 -1 12 3 25 8 29 5 3 11
28 12 55 1 26 7 68 14 93 7 25 14 61 16 82 4 39 36 109 60 128 7 7 11 16 9 21
-3 4 -1 16 4 26 6 10 13 35 16 56 4 22 13 41 23 44 9 4 35 25 56 47 22 23 43
41 48 41 4 0 8 3 8 8 0 42 0 43 -19 19 -11 -12 -27 -22 -38 -22 -13 0 -4 13
32 45 28 25 53 45 58 45 4 0 7 8 7 18 0 9 -4 13 -8 7 -4 -5 -14 -11 -22 -13
-8 -2 -37 -17 -64 -35 -47 -30 -49 -30 -62 -12 -8 10 -14 27 -14 37 0 28 28
89 47 104 28 20 37 4 12 -22 -12 -13 -19 -24 -14 -24 5 0 4 -5 -3 -12 -28 -28
-9 -27 27 1 39 31 71 40 71 21 0 -5 11 -10 24 -10 14 0 28 5 31 10 8 13 48 13
62 -1 14 -14 36 -2 27 14 -4 7 4 3 17 -8 13 -12 33 -27 43 -35 18 -13 19 -13
11 0 -4 8 -15 23 -23 33 -8 9 -12 17 -9 17 3 0 -6 12 -20 26 -19 20 -23 28
-13 34 17 10 -24 64 -99 131 -43 38 -50 47 -29 40 15 -6 51 -26 79 -46 55 -38
75 -39 43 -4 -25 28 -119 89 -138 89 -23 0 0 59 47 122 27 36 31 45 13 29 -22
-21 -26 -22 -26 -7 0 9 7 32 14 51 8 19 13 35 11 35 -3 0 4 16 15 35 15 26 16
33 5 28 -8 -3 -15 0 -15 5 0 6 9 13 19 17 10 3 21 15 24 26 4 14 10 18 19 13
7 -4 10 -4 6 1 -4 4 -3 16 3 26 14 27 3 23 -34 -11 -18 -16 -34 -25 -36 -19
-2 6 1 14 6 18 5 3 29 29 53 56 l44 50 -43 -40 c-24 -22 -66 -65 -95 -95 -147
-158 -202 -210 -223 -210 -30 0 -38 17 -19 45 10 16 12 25 4 27 -7 3 -1 22 16
52 25 44 26 50 12 65 -15 14 -18 14 -33 -1 -12 -13 -14 -20 -5 -31 9 -11 6
-19 -15 -38 -15 -13 -21 -16 -14 -6 25 31 4 29 -23 -3 -14 -17 -30 -29 -35
-26 -14 9 -126 178 -151 228 -13 26 -34 58 -47 70 -26 24 -30 48 -9 48 18 0
77 122 83 169 2 20 13 41 28 52 15 12 26 35 30 62 11 68 56 228 75 272 10 22
26 64 35 92 9 29 25 63 35 75 11 14 17 34 14 53 -2 16 -13 97 -25 179 -11 83
-19 165 -16 183 3 18 1 35 -4 38 -19 12 -8 45 24 69 18 14 70 44 115 66 46 23
81 44 78 47 -3 4 -58 -20 -122 -52 -93 -46 -118 -55 -125 -44 -5 8 -9 18 -9
23 0 11 61 112 115 191 60 87 61 89 38 77 -11 -6 -25 -18 -33 -26 -7 -9 -18
-16 -24 -16 -6 0 -31 -18 -54 -40 -24 -22 -47 -40 -52 -40 -10 0 -20 25 -20
49 0 9 -8 33 -18 53 l-19 35 75 59 c41 33 91 73 111 89 72 62 121 96 128 92 5
-3 13 1 20 8 10 11 10 15 0 19 -7 4 2 4 18 1 17 -2 25 -2 19 1 -23 10 2 62 62
128 67 74 78 103 17 45 -20 -19 -32 -27 -28 -19 5 8 -10 -2 -32 -22 -23 -20
-52 -42 -65 -48 -12 -7 -32 -21 -43 -31 -11 -9 -33 -20 -50 -23 -25 -5 -27 -5
-10 4 16 8 15 9 -10 4 -16 -4 -38 -6 -48 -6 -9 0 -15 -3 -12 -9 4 -5 -4 -9
-17 -10 -13 0 -32 -3 -43 -6 -11 -3 -33 -6 -50 -8 -16 -1 -43 -8 -60 -15 -16
-7 -66 -13 -110 -14 -74 -1 -86 2 -155 37 -41 21 -81 45 -89 52 -19 18 -16 92
6 157 13 38 17 77 15 138 -4 146 -7 175 -15 181 -4 3 -11 48 -16 101 -5 53
-14 104 -19 115 -5 10 -12 49 -16 87 -8 82 -19 106 -49 106 -13 0 -34 14 -50
31 -30 34 -52 34 -51 -1 1 -21 -2 -22 -46 -17 -26 3 -64 2 -86 -3 -24 -6 -40
-5 -42 0 -11 30 -36 -27 -44 -99 -2 -14 -8 -26 -15 -28 -7 -3 -10 3 -8 14 2
10 6 38 9 62 l4 44 -71 -7 c-53 -5 -69 -4 -60 5 6 6 66 16 134 22 75 6 115 14
103 18 -14 6 -8 8 21 9 23 2 32 4 20 7 -22 6 -46 34 -38 45 12 20 -103 30
-147 13z m18 -167 c-3 -8 -31 -16 -64 -20 -98 -11 -118 -20 -125 -57 -4 -19
-12 -36 -17 -40 -20 -12 -32 -63 -32 -134 0 -69 20 -168 27 -137 2 11 17 16
43 17 22 1 47 6 57 11 10 6 34 12 53 14 26 2 35 -1 35 -12 0 -11 -21 -18 -79
-27 -101 -15 -106 -18 -106 -47 0 -40 27 -40 189 1 23 6 24 6 5 -13 -10 -10
-44 -25 -74 -33 -90 -22 -101 -32 -77 -64 11 -15 19 -14 92 13 44 15 79 33 77
39 -1 6 3 11 9 11 6 0 8 9 4 20 -5 16 -2 20 14 20 12 0 21 5 21 10 0 6 7 10
15 10 18 0 19 -11 3 -45 -17 -39 -2 -43 99 -29 115 16 133 17 133 1 0 -15
-109 -41 -132 -32 -8 3 -35 1 -59 -5 -24 -7 -57 -13 -74 -14 -68 -6 -151 -19
-167 -28 -10 -5 -18 -16 -18 -26 -1 -33 -59 46 -75 103 -17 55 -35 73 -35 33
0 -12 -3 -19 -6 -16 -3 4 -8 60 -11 125 -4 100 -2 130 17 198 20 76 62 151 79
141 4 -3 41 1 82 8 97 18 101 18 97 4z m52 -589 c0 -7 11 -8 32 -4 30 7 51 7
163 1 22 -1 51 -9 63 -18 20 -13 22 -21 17 -52 -5 -23 -3 -42 5 -51 13 -16 11
-21 -55 -98 -21 -26 -43 -47 -47 -47 -4 0 12 33 37 72 61 98 57 116 -10 45
-35 -38 -73 -66 -110 -82 -80 -36 -95 -34 -95 13 0 20 -7 46 -15 56 -8 11 -13
28 -9 38 4 14 0 18 -17 18 -21 0 -21 1 -6 18 10 10 17 27 17 37 0 16 -6 17
-61 11 -33 -3 -65 -8 -70 -12 -19 -11 -8 -43 21 -64 17 -12 30 -28 30 -35 0
-8 6 -18 14 -22 19 -12 40 -53 25 -53 -17 0 -97 61 -114 86 -10 15 -24 23 -37
21 -39 -4 -34 30 7 44 22 8 34 18 31 26 -4 9 8 15 35 19 21 4 42 11 45 15 3 5
17 9 32 9 15 0 34 5 42 10 20 13 30 12 30 -1z m-895 -189 c29 0 99 -43 103
-62 3 -15 -1 -16 -30 -6 -18 6 -37 15 -42 19 -6 5 -15 9 -20 9 -6 0 -5 -4 2
-9 11 -7 11 -9 -2 -14 -9 -4 -16 -2 -16 3 0 6 -5 10 -11 10 -15 0 76 -99 113
-124 16 -10 27 -20 25 -23 -14 -14 -181 120 -199 160 -7 15 -16 27 -20 27 -5
0 -38 56 -38 66 0 1 26 -11 58 -27 31 -16 66 -29 77 -29z m-942 -224 c7 -8 43
-38 78 -67 129 -107 262 -257 155 -175 -37 28 -56 33 -56 14 0 -6 -33 20 -72
58 -40 38 -94 88 -120 111 -49 42 -57 58 -35 66 22 9 35 7 50 -7z m1374 -833
c3 -10 15 -26 25 -36 18 -17 17 -19 -12 -55 -16 -20 -38 -55 -49 -77 -19 -39
-19 -40 1 -56 10 -10 15 -20 11 -22 -5 -3 -30 21 -57 54 -44 54 -76 75 -76 48
0 -6 -16 13 -36 42 -33 50 -34 54 -18 66 21 16 80 33 111 33 12 0 25 5 28 10
11 17 65 12 72 -7z m-12 -323 c13 -19 37 -48 54 -64 32 -30 39 -59 21 -86 -9
-13 -11 -13 -21 0 -8 12 -9 10 -4 -8 5 -18 2 -25 -13 -29 -12 -3 -23 -11 -26
-19 -5 -12 -62 -14 -69 -3 -2 2 -16 22 -32 44 -17 22 -29 45 -27 52 1 7 -14
29 -33 50 -60 62 -62 82 -3 25 30 -29 57 -50 59 -47 3 3 14 -4 24 -15 24 -27
38 -25 25 3 -7 13 5 5 29 -20 23 -23 41 -38 41 -33 0 5 -5 12 -11 15 -6 4 -8
14 -5 22 3 8 1 11 -4 8 -6 -3 -10 2 -10 12 0 10 -7 28 -15 39 -8 12 -12 24 -8
27 3 4 -2 9 -11 13 -17 7 -41 47 -70 119 l-16 40 51 -55 c28 -30 62 -71 74
-90z m214 -30 c15 -21 23 -50 27 -98 4 -45 2 -62 -4 -53 -11 16 -21 -6 -28
-67 -3 -20 -12 -42 -21 -49 -8 -7 -13 -19 -10 -27 7 -18 -17 -39 -67 -60 -70
-29 -186 -14 -227 30 -12 13 -17 24 -11 24 6 0 -2 21 -18 47 -31 48 -39 104
-20 133 7 11 10 5 10 -22 0 -60 27 -113 77 -152 26 -20 57 -36 69 -36 13 0 59
16 101 36 78 36 78 37 96 93 21 67 16 131 -14 172 -15 21 -17 29 -7 30 10 0
10 2 1 6 -19 7 -16 23 5 23 10 0 28 -14 41 -30z m41 -1812 c-1 -71 -32 -176
-102 -343 -11 -27 -27 -75 -35 -105 -8 -30 -19 -59 -23 -65 -10 -12 -25 -85
-22 -102 2 -7 -2 -13 -7 -13 -6 0 -10 -8 -9 -17 2 -34 -2 -53 -13 -53 -7 0 -8
17 -4 48 3 26 8 58 9 72 2 14 6 39 9 55 3 17 9 73 12 125 4 52 13 108 21 124
7 16 11 33 7 39 -3 5 -1 7 4 4 6 -4 13 3 16 14 4 16 2 19 -11 15 -15 -5 -15
-5 -1 6 8 7 21 31 27 53 40 143 38 138 77 162 34 20 45 15 45 -19z m272 -312
c-6 -50 -17 -111 -26 -136 -9 -25 -21 -76 -26 -115 -6 -38 -14 -72 -18 -75 -4
-3 -14 -24 -20 -48 -17 -58 -32 -44 -30 28 1 32 4 57 7 55 3 -1 7 13 8 33 2
21 5 52 7 70 3 26 1 32 -10 28 -10 -4 -14 3 -14 22 -1 15 -3 51 -5 80 -4 49
-1 59 32 105 19 29 47 65 62 80 l26 28 8 -32 c5 -18 4 -72 -1 -123z m-257 9
c-1 -11 4 -23 10 -27 6 -5 6 -18 -2 -39 -12 -31 -12 -32 5 -13 10 11 24 28 30
39 8 15 11 16 12 5 0 -9 -6 -24 -14 -35 -7 -11 -19 -38 -26 -60 -17 -53 -57
-132 -71 -141 -8 -4 -9 0 -4 15 3 11 4 21 2 21 -5 0 -60 -162 -77 -229 -6 -23
-13 -65 -15 -92 -2 -27 -6 -59 -10 -71 -4 -17 -3 -19 4 -8 5 8 19 60 30 115
38 176 60 235 87 235 12 0 13 -8 8 -36 -5 -27 -4 -35 5 -30 6 4 11 13 11 19 0
28 22 87 30 82 5 -3 15 15 21 42 10 37 14 43 20 27 17 -43 10 -93 -16 -116
-37 -32 -75 -102 -105 -190 -21 -64 -24 -78 -11 -78 8 0 12 3 8 6 -3 4 1 23 9
43 22 53 96 181 105 181 5 0 2 -21 -6 -47 -17 -56 -17 -56 -7 -50 4 3 6 -53 5
-124 -2 -93 -7 -138 -18 -159 -9 -17 -13 -30 -9 -30 4 0 2 -6 -4 -13 -13 -16
-131 -328 -139 -368 -3 -16 -12 -34 -21 -41 -13 -12 -14 -7 -8 42 4 30 11 59
15 65 9 10 20 100 25 190 2 28 13 77 25 110 12 33 22 67 23 75 0 8 5 21 11 28
5 7 7 15 3 19 -3 3 -6 1 -6 -5 0 -7 -5 -12 -11 -12 -6 0 -9 7 -5 15 7 20 -3
45 -19 45 -12 0 -12 3 10 130 12 74 -12 -7 -29 -96 -16 -82 -16 -94 -3 -126
14 -33 14 -43 -4 -110 -10 -40 -26 -106 -34 -147 -8 -41 -21 -81 -28 -89 -10
-13 -13 -4 -20 49 -8 68 -11 85 -19 109 -15 42 -28 103 -38 173 -13 99 -13 97
8 98 10 0 12 3 5 6 -7 2 -13 14 -13 24 0 11 5 17 10 14 6 -4 8 -11 5 -16 -4
-5 -1 -9 5 -9 13 0 60 96 60 122 0 10 9 53 21 95 18 70 34 112 73 193 14 29
10 72 -4 49 -14 -22 -19 -6 -11 38 5 23 21 57 37 76 32 37 69 44 69 12z m805
-226 c0 -22 -11 -79 -24 -127 -28 -103 -46 -227 -46 -327 0 -39 -5 -76 -10
-81 -12 -12 -2 -124 11 -124 5 0 9 -8 9 -17 0 -16 -2 -16 -11 -3 -8 11 -9 8
-5 -15 17 -101 18 -135 3 -135 -18 0 -29 -24 -21 -45 6 -14 17 -19 36 -16 9 1
14 -20 23 -84 4 -27 15 -84 26 -126 l19 -76 -45 -46 -44 -47 -10 38 c-11 43
-80 329 -85 354 -3 11 3 18 17 20 12 2 28 15 36 29 13 24 13 29 -3 54 -15 22
-23 26 -47 21 -33 -6 -29 -15 -54 125 -20 112 -19 171 4 260 22 86 84 227 104
234 7 3 33 46 57 95 24 49 47 87 52 84 4 -3 8 -23 8 -45z m154 -561 c20 -29
51 -75 71 -103 44 -62 116 -269 87 -251 -4 2 -6 -11 -4 -31 7 -55 -13 -33 -40
45 -12 37 -23 72 -23 77 0 6 -12 34 -28 63 -15 29 -25 57 -22 63 4 5 1 9 -5 9
-6 0 -15 12 -20 26 -6 15 -20 41 -32 58 -18 25 -19 28 -4 16 10 -8 38 -44 62
-80 24 -36 44 -59 44 -52 0 7 -5 18 -10 25 -39 47 -126 187 -116 187 3 0 21
-24 40 -52z m-869 -72 c32 -98 35 -116 29 -175 -8 -83 -8 -155 0 -256 4 -44 8
-98 10 -120 2 -22 11 -78 21 -125 26 -125 24 -282 -6 -317 -39 -47 -43 -54
-26 -48 8 4 18 1 23 -6 4 -8 3 -10 -4 -5 -8 4 -16 -3 -22 -18 -5 -14 -14 -26
-20 -26 -14 0 -12 -27 3 -33 9 -3 7 -10 -6 -23 -18 -19 -18 -19 -11 1 7 18 6
19 -10 5 -16 -12 -20 -12 -30 1 -6 8 -22 15 -35 16 -30 2 -38 10 -23 25 17 17
15 51 -7 100 -10 24 -24 66 -29 93 -6 28 -15 70 -22 95 -6 26 -12 144 -13 285
-2 255 0 267 60 460 21 67 73 188 79 182 1 -1 19 -51 39 -111z m564 -426 c10
-41 27 -114 37 -163 l18 -87 -22 -22 c-20 -21 -22 -21 -22 -4 0 20 -19 92 -47
180 -12 36 -13 50 -4 55 11 7 10 65 -3 161 l-6 45 14 -45 c8 -25 24 -79 35
-120z m-956 -261 c-7 -147 -12 -206 -18 -222 -4 -10 -2 -30 6 -44 12 -22 18
-24 51 -19 36 6 38 5 38 -20 0 -15 -8 -33 -17 -40 -17 -12 -16 -15 9 -38 14
-14 29 -38 33 -55 7 -35 40 -68 50 -51 4 6 2 16 -3 23 -13 17 -32 100 -31 134
1 28 1 28 8 3 4 -14 14 -41 23 -60 8 -19 18 -43 21 -53 4 -9 10 -17 14 -16 36
6 91 -31 78 -51 -4 -6 6 -10 20 -10 22 0 26 -3 20 -17 -6 -16 -11 -33 -14 -53
-1 -3 -6 2 -11 10 -6 10 -10 11 -10 3 0 -32 -121 5 -208 64 -37 24 -92 60
-123 79 -33 20 -74 56 -97 88 l-41 53 26 49 c14 26 43 73 63 104 21 30 51 85
66 122 16 37 34 66 39 64 6 -1 9 -23 8 -47z m823 -5 c-13 -33 -17 -120 -7
-144 5 -14 10 -19 10 -12 1 6 6 12 12 12 5 0 7 -4 4 -10 -3 -5 -2 -10 4 -10 8
0 27 52 46 133 9 35 16 34 44 -3 22 -30 22 -32 6 -79 -19 -59 -36 -75 -95 -92
-25 -7 -47 -15 -50 -19 -3 -3 -13 -11 -22 -19 -16 -12 -18 -11 -13 15 3 16 7
66 8 110 2 56 9 90 20 108 19 28 43 36 33 10z m-128 -834 c2 -25 -2 -63 -8
-85 -6 -22 -12 -64 -14 -93 -3 -60 -19 -82 -62 -85 -26 -2 -29 2 -35 33 -5 29
-7 31 -8 8 -2 -40 -11 -58 -30 -58 -28 0 -41 22 -41 68 0 48 18 71 55 72 12 0
26 5 32 11 7 7 12 0 17 -26 9 -46 21 -37 18 13 -2 28 0 33 8 22 8 -11 10 -1 8
40 -4 111 52 186 60 80z"/>
<path d="M1213 5089 c-28 -10 -40 -53 -23 -85 7 -13 39 -44 71 -69 33 -26 70
-66 84 -90 14 -24 37 -51 51 -60 23 -15 25 -21 23 -87 -2 -51 2 -72 12 -79 20
-13 27 -11 49 11 17 17 19 28 14 63 -4 23 -12 51 -18 62 -6 11 -16 40 -21 65
-11 45 -71 138 -90 140 -18 1 -52 36 -60 61 -15 50 -57 81 -92 68z"/>
<path d="M3805 4837 c-8 -12 -15 -29 -15 -37 0 -9 -5 -21 -12 -28 -12 -12 -9
-13 31 -24 11 -3 10 -8 -4 -22 -14 -14 -15 -20 -6 -26 10 -6 10 -12 2 -29 -7
-11 -9 -21 -6 -21 3 0 -1 -16 -9 -35 -8 -19 -12 -35 -9 -35 4 0 -2 -6 -12 -14
-12 -8 -16 -19 -12 -30 9 -22 31 -16 35 10 2 10 9 24 16 29 20 16 69 123 61
134 -3 6 -1 21 6 33 18 34 22 83 7 95 -28 22 -58 22 -73 0z"/>
<path d="M716 3635 c14 -62 173 -338 175 -304 0 7 4 4 9 -8 5 -13 15 -23 22
-23 7 0 22 -13 33 -30 11 -16 25 -32 31 -34 16 -6 -20 60 -76 139 -27 39 -79
115 -116 170 -82 122 -87 128 -78 90z"/>
<path d="M1588 3208 c-14 -5 -29 -15 -31 -23 -7 -17 3 -55 13 -55 5 0 -5 -13
-21 -29 -30 -30 -38 -72 -19 -101 7 -11 10 -11 10 -2 0 7 5 10 10 7 6 -4 8
-11 5 -16 -4 -5 2 -6 11 -2 13 5 16 3 11 -10 -11 -29 40 -21 69 10 21 22 24
34 19 58 -12 49 -17 88 -17 121 0 38 -23 54 -60 42z"/>
<path d="M1075 3137 c15 -21 25 -40 21 -44 -3 -3 -6 -1 -6 6 0 7 -5 11 -12 9
-7 -3 -23 8 -36 24 -14 16 -27 27 -29 24 -7 -6 122 -181 181 -247 28 -30 67
-75 86 -99 52 -65 106 -118 143 -136 32 -16 32 -16 15 3 -12 13 -14 23 -8 29
7 7 4 19 -10 36 -22 29 -28 74 -7 62 14 -9 4 5 -63 86 -55 67 -88 100 -101
100 -5 0 -8 4 -6 9 1 6 -18 31 -43 56 -33 35 -50 45 -67 42 -13 -2 -23 1 -23
8 0 6 -14 24 -32 41 l-31 29 28 -38z"/>
</g>
</svg>
